# xmcd CD database file
#
# Track frame offsets:
#	183
#	14208
#	56345
#	80470
#	94490
#	123608
#	139590
#	158468
#	176695
#	196420
#	225828
#	244358
#	268358
#	292283
#	313808
#
# Disc length: 4578 seconds
#
# Revision: 2
# Processed by: cddbd v1.5.2PL0 Copyright (c) Steve Scherf et al.
# Submitted via: CDex 1.51
#
DISCID=df11e00f
DTITLE=Buddy De Franco Quartet - Vol. 227 - Buddy De Franco Quartet
DYEAR=1995
DGENRE=Jazz
TTITLE0=Titoro
TTITLE1=The Bright One
TTITLE2=Lover Man
TTITLE3=Jack The Fieldstalker
TTITLE4=Mine
TTITLE5=Deep Purple
TTITLE6=Yesterday
TTITLE7=Cable Car
TTITLE8=If I Should Lose You
TTITLE9=Now's The Time
TTITLE10=Laura
TTITLE11=I'll Remember April
TTITLE12=A Foggy Day
TTITLE13=What Can I Say Dear
TTITLE14=Gerry's Tune
EXTD=with Sonny Clark, Gene Wright, Bobby White  1954\nLabel: Giants Of Jazz CD 53227\n YEAR: 1995
EXTT0=
EXTT1=
EXTT2=
EXTT3=
EXTT4=
EXTT5=
EXTT6=
EXTT7=
EXTT8=
EXTT9=
EXTT10=
EXTT11=
EXTT12=
EXTT13=
EXTT14=
PLAYORDER=
